<svg width="24" height="24" viewBox="0 0 24 24" fill="none" xmlns="http://www.w3.org/2000/svg">
<path d="M8.0006 12.0006C8.0006 14.2096 9.7916 16.0006 12.0006 16.0006C14.2096 16.0006 16.0006 14.2096 16.0006 12.0006C16.0006 9.7916 14.2096 8.0006 12.0006 8.0006C9.7916 8.0006 8.0006 9.7916 8.0006 12.0006Z" fill="white"/>
<path fill-rule="evenodd" clip-rule="evenodd" d="M7.0525 0.072C8.3325 0.014 8.741 0 12 0C15.259 0 15.6675 0.014 16.9475 0.072C18.8985 0.161 20.611 0.639 21.986 2.014C23.3615 3.3895 23.839 5.1025 23.928 7.0525C23.986 8.3325 24 8.741 24 12C24 15.259 23.986 15.6675 23.928 16.9475C23.839 18.8985 23.361 20.611 21.986 21.986C20.6105 23.3615 18.897 23.839 16.9475 23.928C15.6675 23.986 15.259 24 12 24C8.741 24 8.3325 23.986 7.0525 23.928C5.1015 23.839 3.389 23.361 2.014 21.986C0.6385 20.6105 0.161 18.8975 0.072 16.9475C0.014 15.6675 0 15.259 0 12C0 8.741 0.014 8.3325 0.072 7.0525C0.161 5.1015 0.639 3.389 2.014 2.014C3.3895 0.6385 5.1025 0.161 7.0525 0.072ZM5.83828 12.0003C5.83828 8.59728 8.59678 5.83828 12.0003 5.83828C15.4038 5.83828 18.1623 8.59678 18.1623 12.0003C18.1623 15.4038 15.4038 18.1623 12.0003 18.1623C8.59678 18.1623 5.83828 15.4033 5.83828 12.0003ZM18.4052 7.0343C19.2005 7.0343 19.8452 6.38959 19.8452 5.5943C19.8452 4.79901 19.2005 4.1543 18.4052 4.1543C17.6099 4.1543 16.9652 4.79901 16.9652 5.5943C16.9652 6.38959 17.6099 7.0343 18.4052 7.0343Z" fill="white"/>
</svg>
