<svg width="26" height="20" viewBox="0 0 26 20" fill="none" xmlns="http://www.w3.org/2000/svg">
<path d="M26 2.36754C25.0434 2.76911 24.0154 3.04056 22.9363 3.16258C24.0377 2.53773 24.8835 1.54824 25.2817 0.369211C24.2511 0.947826 23.1095 1.36802 21.8944 1.59448C20.9214 0.613157 19.5351 0 18.0009 0C15.0549 0 12.6665 2.26064 12.6665 5.04891C12.6665 5.44468 12.7137 5.82997 12.8046 6.19954C8.37142 5.989 4.44092 3.9789 1.81001 0.92418C1.35085 1.66991 1.08783 2.5372 1.08783 3.46252C1.08783 5.21418 2.02956 6.7596 3.46083 7.66506C2.58644 7.63886 1.76394 7.4117 1.04473 7.03352C1.04435 7.05462 1.04427 7.07572 1.04427 7.09699C1.04427 9.54334 2.88297 11.584 5.32322 12.0478C4.87558 12.1632 4.40433 12.2249 3.91787 12.2249C3.57414 12.2249 3.23998 12.1932 2.91427 12.1343C3.59308 14.1402 5.56302 15.6 7.89722 15.6408C6.07161 16.995 3.77159 17.8021 1.27246 17.8021C0.841896 17.8021 0.417278 17.7782 0 17.7316C2.36066 19.1642 5.1645 20 8.17685 20C17.9885 20 23.3538 12.3065 23.3538 5.63438C23.3538 5.41548 23.3486 5.19774 23.3383 4.98122C24.3805 4.26934 25.2849 3.38006 26 2.36754Z" fill="white"/>
</svg>
